<?xml version="1.0" encoding="UTF-8"?>
<svg id="Calque_1" xmlns="http://www.w3.org/2000/svg" width="195" height="78" viewBox="0 0 159.86 51.58">
    <defs>
        <style>.cls-1{fill:#0067b2;}.cls-2{fill:#ffd600;}.cls-3{fill:#7ab929;}</style>
    </defs>
    <g>
        <g>
            <g>
                <path class="cls-1" d="M28.89,9.02c.33,0,1.01,.04,1.84,.21,.57,.13,.88,.67,.69,1.13-.21,.5-.84,.67-1.39,.4-.38-.21-.92-.34-1.68-.34-3.96,0-5.49,4.03-5.49,7.19,0,2.43,1.09,4.17,3.77,4.17,.63,0,1.15-.08,1.88-.35h-.02c.1-.04,.23-.09,.31-.13,.4-.15,.9,.06,.76,.4-.27,.63-.84,1.17-1.66,1.28-.5,.06-1.11,.12-1.82,.12-2.08,0-3.92-.52-4.92-2.09-.52-.8-.84-1.91-.84-3.27,0-3.52,1.8-8.72,8.59-8.72Z"/>
                <path class="cls-1" d="M32.75,13.9c.38-2.03,.54-3.06,.52-3.63-.02-.44,.15-.92,.71-.98,.21-.02,.4-.04,.63-.08,.59-.11,1.19,.27,1.07,.77-.11,.55-.21,1.03-.4,1.99-.15,.8-.3,1.65-.46,2.47,.34-.61,.8-1.3,1.45-1.7,.82-.54,1.62-.63,2.2-.63,1.32,0,2.6,.57,2.6,2.08,0,.42-.08,.92-.25,1.9l-.75,4.28c-.08,.5-.13,1.05-.17,1.42-.04,.55-.61,.97-1.3,.97-.57,0-1.07-.46-.98-.92,.1-.34,.19-.84,.33-1.59l.75-4.34c.06-.33,.12-.71,.12-.99,0-.75-.27-1.3-1.22-1.3-.73,0-1.47,.36-2.07,1.01-.34,.36-.86,1.22-1.32,3.06-.1,.44-.55,2.77-.73,4.04-.1,.61-.69,1.05-1.42,1.05-.56,0-.99-.44-.86-.9,.15-.46,.33-1.28,.58-2.62l.97-5.36Z"/>
                <path class="cls-1" d="M53.94,15.69c.19-1.03,.25-1.68,.23-2.12-.04-.46,.23-.93,.8-1.01,.19-.02,.36-.04,.52-.06h-.02c.57-.11,1.11,.27,1.07,.73-.02,.11-.07,.34-.13,.61-.06,.27-.15,.57-.21,.88,.38-.69,.92-1.51,1.61-1.97,.36-.23,.75-.4,1.09-.52,.57-.17,1.01,.33,.86,.8-.19,.52-.84,.84-1.47,.99-.81,.21-1.86,1.05-2.37,2.93-.29,1.01-.73,3.54-.82,4.8-.06,.55-.59,.99-1.26,.98h-.1c-.58,0-1.09-.42-.96-.9,.09-.33,.19-.67,.23-.96l.94-5.19Z"/>
                <path class="cls-1" d="M64.1,21.82c.75,0,1.34-.19,1.8-.38,.36-.17,.79,.09,.69,.44-.13,.44-.5,.86-1.09,1.01-.48,.09-1.07,.19-1.84,.19-3.19-.1-3.98-1.86-4.02-4.25,0-2.08,1.01-3.79,1.65-4.57,1.32-1.63,3.12-2.16,4.44-2.16,1.93,0,2.91,1,2.91,2.29,0,.57-.25,1.32-.65,1.93-.48,.71-1.28,1.24-1.91,1.57-1.28,.63-2.56,.69-4.05,.75-.02,.05-.06,.34-.06,.73,0,.93,.29,2.47,2.14,2.45Zm-.71-7.5c-.77,.88-1.17,2.79-1.32,3.88,1.18-.11,2.47-.86,3.46-1.8,.49-.48,.86-1.15,.86-1.91,0-.86-.52-1.26-1.09-1.26-.35,0-1.07,.13-1.9,1.09h-.02Z"/>
                <path class="cls-1" d="M70.26,16c.13-.79,.29-1.76,.29-2.49v-.11c-.02-.44,.19-.92,.75-.98,.23-.02,.42-.05,.63-.09,.54-.08,1.07,.3,1.01,.75-.04,.23-.13,.71-.23,1.19,.23-.44,.5-.9,.86-1.21,.76-.59,1.74-.95,2.79-.95,1.13,0,2.66,.42,2.66,1.99,0,.34-.06,.76-.23,1.66-.15,.86-.33,1.82-.48,2.68-.15,.82-.42,2.37-.48,3.35-.04,.55-.61,.96-1.26,.96h-.17c-.56,.02-1.01-.41-.9-.85,.17-.59,.38-1.53,.71-3.4l.23-1.28c.17-.94,.29-1.68,.29-2.24,0-.96-.32-1.35-1.34-1.35-.8,0-1.76,.59-2.31,1.32-.65,.84-.88,2.2-1.05,3.25l-.34,2.24c-.1,.59-.13,1.03-.16,1.4-.04,.53-.63,.9-1.26,.9h-.15c-.55,.02-1.03-.4-.94-.83,.21-.69,.34-1.42,.48-2.3l.61-3.59Z"/>
                <path class="cls-1" d="M84.87,12.13c.27,0,.52,0,.71-.02,.46-.04,.82,.3,.75,.67-.09,.4-.58,.65-1.11,.65-.38-.02-.88-.02-1.15-.02-.1,.5-.23,1.22-.38,1.93-.19,.96-.4,2.08-.54,2.76-.21,.99-.36,1.85-.36,2.41,0,.74,.38,1.05,.92,1.05,.17,0,.32-.02,.48-.06,.4-.06,.77,.23,.69,.53-.11,.46-.53,.88-1.13,.96-.13,.02-.33,.02-.48,.02-1.19,0-1.97-.37-2.26-.75-.27-.39-.4-.73-.4-1.15,0-.36,.08-.78,.17-1.32l1.24-6.39h.15c-.06,0-.1-.02-.13-.02-.42,0-.75-.31-.69-.63,.06-.38,.44-.69,.94-.63h-.02c.1-.51,.15-.91,.19-1.33,.06-.61,.57-1.13,1.3-1.3,.55-.11,1.13,.23,1.01,.69-.17,.61-.29,1.13-.44,1.97,.17,0,.35-.02,.53-.02Z"/>
                <path class="cls-1" d="M90.84,21.82c.75,0,1.34-.19,1.8-.38,.36-.17,.78,.09,.69,.44-.14,.44-.5,.86-1.09,1.01-.48,.09-1.07,.19-1.84,.19-3.19-.1-3.98-1.86-4.02-4.25,0-2.08,1.02-3.79,1.65-4.57,1.32-1.63,3.12-2.16,4.44-2.16,1.93,0,2.91,1,2.91,2.29,0,.57-.25,1.32-.65,1.93-.48,.71-1.28,1.24-1.92,1.57-1.28,.63-2.56,.69-4.05,.75-.02,.05-.06,.34-.06,.73,0,.93,.29,2.47,2.14,2.45Zm-.71-7.5c-.77,.88-1.17,2.79-1.32,3.88,1.18-.11,2.46-.86,3.46-1.8,.5-.48,.86-1.15,.86-1.91,0-.86-.52-1.26-1.09-1.26-.34,0-1.07,.13-1.9,1.09h-.02Z"/>
                <path class="cls-1" d="M51.26,16.02c-.04-2.33-.82-4.05-4.02-4.14-.76,0-1.36,.09-1.83,.19-.59,.15-.96,.56-1.09,.99-.1,.34,.33,.6,.69,.43,.46-.18,1.05-.37,1.8-.37,1.85-.02,2.14,1.47,2.14,2.39,0,.37-.04,.65-.06,.71-1.49,.06-2.76,.14-4.06,.73-1.02,.47-1.51,.92-2.08,1.54-.57,.61-.7,1.41-.66,2.09,.02,.32,.1,.6,.24,.84h-.01c.52,1.07,1.58,1.59,2.65,1.59,1.62,0,2.72-1.57,3.56-2.74,.02-.02,.04-.08,.06-.09,0,.11,0,.02-.06,.33-.08,.48-.17,1.08-.21,1.49-.04,.45,.46,.82,1.03,.8,.56-.02,1.09-.33,1.09-.78,0-.58,.12-1.72,.42-3.38l.34-1.85s0-.1,0-.16c.04-.19,.06-.38,.06-.6Zm-5.89,2.37c.99-.91,2.28-1.64,3.46-1.75-.15,1.07-.55,2.93-1.32,3.79h-.02c-.82,.94-1.55,1.07-1.89,1.07-.57,0-1.09-.39-1.09-1.23,0-.75,.36-1.41,.86-1.87Z"/>
            </g>
            <g>
                <path class="cls-1" d="M23.29,30.39c.29,1.7,.61,3.48,.9,5.18,.29-.52,.59-1.01,.84-1.46,0,.02,.06-.09,.08-.13l2.62-4.47c.4-.65,.86-1.53,1.19-2.2,.31-.59,1.01-.92,1.82-.9h.98c.55-.02,.96,.44,.82,.86-.21,.63-.44,1.68-.76,3.33-.92,4.86-1.25,6.81-1.34,7.83,0,.08-.02,.15-.02,.23v.17c-.02,.56-.56,.98-1.22,.95h-.5c-.58,.02-.92-.47-.78-.92,.12-.36,.27-1.04,.48-2.14l1.51-7.78c-1.41,2.39-2.81,4.86-4.23,7.25-.27,.47-.46,.78-.57,.99-.27,.46-.27,.5-.61,1.17-.17,.39-.63,.59-1.15,.59-.44,0-.8-.26-.84-.59-.06-.41-.13-.92-.32-2.14-.34-1.76-.69-3.67-1.03-5.43-.04-.25-.08-.48-.11-.67-.12-.61-.14-.69-.14-.69,0-.04,0-.1-.02-.21-.48,2.39-.98,4.76-1.44,7.15-.19,1.05-.33,1.92-.38,2.45-.06,.59-.7,1-1.41,1h-.19c-.54,.02-.94-.46-.78-.9,.23-.65,.48-1.53,.78-2.68,.34-1.28,.94-3.77,1.01-4.15,.55-2.6,.73-3.96,.75-4.74,0-.53,.54-.94,1.19-.92,.16,.02,.33,.02,.5,.02,.21,0,.38,0,.55-.02,.73-.02,1.36,.41,1.44,1.04,.08,.86,.23,1.8,.42,2.94Z"/>
                <path class="cls-1" d="M44.93,32.72c.19-1.04,.25-1.68,.23-2.13-.04-.46,.23-.94,.81-1.01,.19-.02,.36-.04,.52-.06h-.02c.57-.11,1.11,.27,1.07,.73-.02,.11-.08,.34-.14,.61-.05,.27-.15,.57-.21,.88,.38-.69,.92-1.51,1.61-1.96,.36-.23,.75-.4,1.09-.52,.57-.17,1.01,.33,.86,.8-.19,.52-.84,.84-1.47,.99-.81,.21-1.86,1.05-2.37,2.93-.29,1.02-.73,3.54-.82,4.8-.06,.55-.59,.99-1.26,.97h-.1c-.58,0-1.09-.42-.96-.9,.09-.33,.19-.67,.23-.95l.94-5.18Z"/>
                <path class="cls-1" d="M53.36,35.15c-.35,1.91-.5,3.04-.56,3.71-.04,.53-.63,.9-1.26,.9h-.15c-.55,.02-.96-.5-.86-.96,0-.01,.02-.07,.02-.1,.1-.4,.23-.95,.37-1.74l.34-1.87c.46-2.54,.63-3.81,.61-4.5-.02-.44,.15-.97,.74-1.01,.27-.04,.48-.08,.69-.12,.58-.13,1.05,.33,.96,.81-.02,.09-.04,.19-.06,.31-.08,.34-.17,.8-.29,1.45l-.55,3.12Zm1.55-8.46c0,.61-.52,1.59-1.51,1.59-.56,0-1.13-.31-1.13-1,0-.57,.48-1.53,1.53-1.53,.59,0,1.11,.31,1.11,.93Z"/>
                <path class="cls-1" d="M59.85,29.17c.27,0,.52,0,.71-.02,.46-.04,.82,.31,.75,.67-.1,.4-.57,.65-1.11,.65-.38-.02-.88-.02-1.15-.02-.09,.5-.23,1.22-.38,1.93-.19,.96-.4,2.09-.54,2.76-.21,.99-.36,1.85-.36,2.4,0,.75,.38,1.06,.92,1.06,.17,0,.33-.02,.48-.06,.4-.06,.76,.23,.69,.54-.12,.46-.53,.88-1.13,.95-.13,.02-.33,.02-.48,.02-1.18,0-1.97-.37-2.26-.75-.27-.38-.4-.73-.4-1.15,0-.36,.08-.79,.17-1.32l1.24-6.39h.15c-.05,0-.09-.02-.13-.02-.42,0-.75-.31-.69-.63,.06-.38,.44-.69,.94-.63h-.02c.09-.52,.15-.92,.19-1.34,.06-.61,.57-1.13,1.3-1.3,.55-.12,1.13,.23,1.01,.69-.17,.61-.29,1.13-.44,1.97,.17,0,.34-.02,.53-.02Z"/>
                <path class="cls-1" d="M64.09,35.15c-.34,1.91-.5,3.04-.55,3.71-.04,.53-.63,.9-1.26,.9h-.15c-.56,.02-.96-.5-.86-.96,0-.01,.02-.07,.02-.1,.09-.4,.23-.95,.36-1.74l.34-1.87c.46-2.54,.63-3.81,.61-4.5-.02-.44,.16-.97,.75-1.01,.27-.04,.48-.08,.69-.12,.57-.13,1.05,.33,.95,.81-.02,.09-.04,.19-.06,.31-.08,.34-.17,.8-.29,1.45l-.55,3.12Zm1.55-8.46c0,.61-.52,1.59-1.51,1.59-.55,0-1.13-.31-1.13-1,0-.57,.48-1.53,1.53-1.53,.59,0,1.11,.31,1.11,.93Z"/>
                <path class="cls-1" d="M78.21,29.13c.69,0,2.22,.25,2.22,1.95,0,.46-.07,.9-.21,1.59-.19,1.05-.4,2.21-.59,3.27-.25,1.34-.34,2.22-.38,2.79-.04,.59-.63,1.03-1.3,1.03h-.15c-.59,.02-.97-.46-.86-.92,.11-.37,.25-.99,.38-1.7,.19-1.09,.4-2.3,.59-3.39,.11-.67,.23-1.39,.23-1.79,0-1.04-.21-1.26-.59-1.26-.82,0-2.01,.65-2.75,2.63-.53,1.57-.92,4.36-1.01,5.46-.06,.55-.65,.95-1.3,.95-.59,0-1.09-.46-1-.92,.15-.57,.33-1.42,.59-2.89l.23-1.34c.21-1.23,.34-2.14,.34-2.64,0-.92-.04-1.28-.67-1.28-1.01,0-2.03,.91-2.62,2.51-.44,1.28-.92,4.34-1.03,5.58-.04,.55-.63,.97-1.28,.97h-.15c-.54,.02-.96-.44-.86-.88,.12-.42,.21-.93,.36-1.74,.27-1.53,.59-3.27,.84-4.8,.15-.81,.19-1.34,.17-1.71-.02-.48,.17-.96,.75-1.05,.1-.02,.25-.02,.34-.04,.06-.02,.16-.04,.23-.04,.54-.1,1.18,.21,1.09,.71-.06,.21-.14,.63-.23,1.09,0,.02-.02,.04-.02,.06,.28-.47,.63-.99,1-1.36,.19-.2,.97-.86,2.07-.86,1.78,0,2.12,1.65,2.22,2.64,.34-.58,.84-1.32,1.3-1.79,.21-.2,.97-.86,2.06-.86Z"/>
                <path class="cls-1" d="M86.28,38.84c.75,0,1.34-.19,1.8-.38,.36-.17,.79,.09,.69,.44-.13,.44-.5,.86-1.09,1.01-.48,.1-1.07,.19-1.84,.19-3.19-.09-3.98-1.85-4.02-4.25,0-2.08,1.02-3.79,1.64-4.57,1.32-1.63,3.12-2.16,4.44-2.16,1.93,0,2.91,1,2.91,2.3,0,.57-.25,1.31-.65,1.93-.48,.71-1.28,1.24-1.91,1.57-1.28,.63-2.56,.69-4.05,.75-.02,.05-.06,.35-.06,.73,0,.94,.29,2.47,2.14,2.45Zm-.71-7.5c-.76,.88-1.17,2.79-1.32,3.88,1.18-.11,2.47-.86,3.46-1.8,.5-.47,.86-1.15,.86-1.91,0-.86-.52-1.26-1.09-1.26-.35,0-1.07,.13-1.89,1.09h-.02Z"/>
                <path class="cls-1" d="M42.42,33.01c-.04-2.33-.82-4.05-4.02-4.14-.76,0-1.36,.1-1.84,.18-.59,.15-.96,.56-1.09,.99-.09,.33,.33,.6,.69,.43,.46-.19,1.05-.38,1.8-.38,1.86-.02,2.14,1.48,2.14,2.39,0,.37-.04,.65-.06,.71-1.49,.06-2.76,.14-4.05,.73-1.02,.46-1.51,.92-2.08,1.54-.57,.61-.7,1.41-.67,2.09,.02,.31,.1,.59,.24,.84h0c.52,1.07,1.58,1.59,2.65,1.59,1.62,0,2.71-1.57,3.56-2.74,.02-.02,.04-.08,.06-.09,0,.11,0,.02-.06,.33-.08,.49-.17,1.08-.21,1.49-.04,.45,.46,.82,1.03,.8,.55-.02,1.09-.34,1.09-.78,0-.58,.11-1.72,.42-3.38l.34-1.85c0-.06,0-.11,0-.16,.04-.19,.06-.39,.06-.6Zm-5.89,2.37c1-.92,2.28-1.65,3.46-1.75-.15,1.06-.55,2.93-1.32,3.78h-.02c-.82,.94-1.55,1.06-1.89,1.06-.57,0-1.09-.39-1.09-1.23,0-.75,.36-1.4,.86-1.86Z"/>
            </g>
            <g>
                <path class="cls-1" d="M2.13,22.88C.14,22.86-.05,21.58,0,20.6c.02-.4,.1-.84,.15-1.18,.04-.21,.06-.4,.06-.48,.04-.23,.08-.39,.1-.52,.08-.44,.13-.73,.73-4.13,.36-2.08,.53-3.35,.52-3.98-.02-.44,.21-.95,.76-1.02,.21-.02,.38-.05,.61-.11,.53-.13,1.07,.29,1.03,.77-.1,.47-.21,1.05-.36,1.87-.08,.4-.17,.86-.27,1.4-.29,1.7-.59,3.46-.88,5.16-.04,.25-.08,.58-.13,.84-.11,.71-.25,1.41-.09,1.85,0,0,.13,.54,.55,.55,.34,0,.5-.03,.77-.13,.02,0,.13-.04,.19-.06,.4-.13,.72,.21,.59,.55-.17,.44-.67,.75-1.24,.83-.29,.03-.63,.06-.96,.06Z"/>
                <path class="cls-1" d="M14.68,16.02c-.04-2.33-.82-4.05-4.02-4.14-.76,0-1.36,.09-1.84,.19-.59,.15-.96,.56-1.09,.99-.1,.34,.33,.6,.69,.43,.46-.19,1.05-.37,1.8-.37,1.86-.02,2.14,1.48,2.14,2.39,0,.37-.04,.66-.06,.71-1.49,.05-2.76,.14-4.05,.73-1.02,.46-1.51,.92-2.08,1.53-.57,.61-.7,1.41-.66,2.09,.02,.31,.1,.59,.24,.84h0c.52,1.08,1.58,1.59,2.65,1.59,1.63,0,2.72-1.56,3.56-2.74,.02-.02,.04-.08,.06-.1,0,.11,0,.02-.06,.34-.08,.49-.17,1.08-.21,1.49-.04,.45,.46,.82,1.04,.8,.55-.02,1.09-.34,1.09-.78,0-.58,.12-1.72,.42-3.38l.35-1.85s0-.1,0-.16c.04-.19,.06-.38,.06-.6Zm-5.89,2.37c.99-.91,2.28-1.64,3.46-1.75-.15,1.06-.55,2.93-1.32,3.79h-.02c-.82,.94-1.55,1.07-1.89,1.07-.58,0-1.09-.4-1.09-1.23,0-.74,.37-1.4,.86-1.87Z"/>
            </g>
        </g>
        <g>
            <path class="cls-2" d="M97.86,50.01c0-22.12,17.93-40.05,40.05-40.05,5.47,0,10.68,1.1,15.43,3.08-5.27-2.54-11.18-3.98-17.42-3.98-22.12,0-40.05,17.93-40.05,40.05,0,.31,0,.61,0,.91h1.98s0-.01,0-.01Z"/>
            <path class="cls-3" d="M130.05,.66c-1.41,16.72,2.78,17.55,2.78,17.55-4.13,8.32,2.42,17.13,2.42,17.13,0,0-10.56,6.41-15.3,3.88l-.16,.03s16.63,5.41,24.25,1.02c10.27-5.92,15.82-2.31,15.82-2.31-1.11-1.67-3.28-2.36-3.28-2.36-2.26-3.93-10.63-2.4-10.63-2.4-2.31-2.73-1.94-8.32-1.8-9.98,.14-1.66,0-3.15,0-3.15-1.8-9.66-12.75-19.23-13.31-19.55l-.7-.52-.09,.66Z"/>
            <path class="cls-1" d="M115.44,6.3c-1.42,16.72,2.78,17.55,2.78,17.55-4.13,8.32,3.01,17.91,3.01,17.91,0,0-8.4,3.49-15.9,3.11l-.15,.03s16.63,5.41,24.26,1.02c10.27-5.91,15.83-2.31,15.83-2.31-1.11-1.67-3.28-2.36-3.28-2.36-2.26-3.93-10.63-2.4-10.63-2.4-2.31-2.72-1.94-8.32-1.8-9.98,.14-1.66,0-3.14,0-3.14-1.8-9.66-12.76-19.23-13.31-19.55l-.73-.59-.06,.73Z"/>
        </g>
    </g>
    <g>
        <path class="cls-1" d="M17.94,45.94h.69l-.95,5h2.26l-.12,.6h-2.94l1.06-5.6Z"/>
        <path class="cls-1" d="M24.68,48.91h-2.03l-.38,2.04h2.29l-.12,.59h-2.98l1.06-5.6h2.86l-.12,.59h-2.16l-.34,1.79h2.03l-.12,.58Z"/>
        <path class="cls-1" d="M29.76,46.01c.43-.08,.9-.11,1.39-.11,.93,0,1.64,.27,2.06,.75,.3,.31,.52,.81,.52,1.52,0,1.01-.41,2.02-1.12,2.63-.65,.55-1.46,.78-2.54,.78-.49,0-1-.03-1.35-.07l1.04-5.5Zm-.25,4.96c.25,.03,.51,.03,.72,.03,.89,0,1.54-.26,2-.74,.51-.51,.76-1.28,.76-2.06,0-1-.48-1.74-1.88-1.74-.25,0-.56,.01-.76,.06l-.85,4.45Z"/>
        <path class="cls-1" d="M38.21,48.91h-2.03l-.39,2.04h2.29l-.12,.59h-2.97l1.06-5.6h2.85l-.12,.59h-2.15l-.35,1.79h2.03l-.11,.58Zm.64-4.24l-1.14,.98h-.61l.84-.98h.91Z"/>
        <path class="cls-1" d="M40.86,46.02c.31-.08,.76-.12,1.21-.12,.54,0,1.05,.13,1.37,.43,.27,.24,.41,.57,.41,1.01,0,.62-.31,1.16-.67,1.46-.43,.37-1.06,.53-1.69,.53-.22,0-.4-.02-.57-.04l-.42,2.24h-.68l1.05-5.51Zm.16,2.69c.19,.04,.36,.06,.56,.06,.95,0,1.58-.59,1.58-1.38,0-.67-.47-.94-1.11-.94-.27,0-.48,.02-.61,.06l-.41,2.2Z"/>
        <path class="cls-1" d="M45.54,49.77l-.89,1.77h-.73l2.9-5.6h.81l.78,5.6h-.7l-.23-1.77h-1.93Zm1.88-.55l-.22-1.62c-.03-.29-.07-.7-.1-1.03h-.02c-.15,.33-.29,.68-.46,1.02l-.84,1.63h1.63Z"/>
        <path class="cls-1" d="M51.09,46.02c.34-.08,.81-.12,1.22-.12,.56,0,1.04,.13,1.34,.41,.26,.23,.41,.54,.41,.92,0,.82-.62,1.43-1.33,1.63h0c.4,.15,.58,.56,.62,1.14,.06,.78,.1,1.32,.17,1.54h-.71c-.03-.12-.09-.71-.13-1.35-.04-.77-.32-1.09-.88-1.09h-.62l-.46,2.44h-.69l1.05-5.51Zm.2,2.54h.61c.87,0,1.44-.57,1.44-1.24,0-.6-.45-.87-1.08-.87-.27,0-.45,.03-.58,.06l-.39,2.06Z"/>
        <path class="cls-1" d="M57.15,46.54h-1.63l.12-.6h3.97l-.11,.6h-1.64l-.95,5h-.69l.95-5Z"/>
        <path class="cls-1" d="M63.31,48.91h-2.03l-.38,2.04h2.29l-.12,.59h-2.98l1.06-5.6h2.86l-.12,.59h-2.16l-.34,1.79h2.03l-.12,.58Z"/>
        <path class="cls-1" d="M69.59,51.54l.4-3.02c.07-.53,.2-1.35,.3-1.89h-.03c-.26,.56-.57,1.23-.87,1.8l-1.67,3.08h-.52l-.42-3.01c-.08-.65-.14-1.3-.17-1.87h-.03c-.12,.51-.29,1.36-.42,1.89l-.76,3.02h-.65l1.45-5.6h.88l.44,3.2c.06,.48,.12,.99,.13,1.4h.02c.17-.42,.42-.91,.66-1.38l1.73-3.23h.9l-.71,5.6h-.66Z"/>
        <path class="cls-1" d="M75.52,48.91h-2.03l-.38,2.04h2.29l-.12,.59h-2.98l1.06-5.6h2.85l-.12,.59h-2.16l-.34,1.79h2.03l-.11,.58Z"/>
        <path class="cls-1" d="M77.11,51.54l1.06-5.6h.76l1.28,3.17c.25,.63,.37,1.08,.49,1.56h.02c.03-.52,.09-.98,.24-1.76l.56-2.97h.65l-1.06,5.6h-.68l-1.28-3.16c-.27-.69-.39-1.08-.52-1.61h-.02c-.06,.53-.15,1.09-.29,1.85l-.55,2.92h-.65Z"/>
        <path class="cls-1" d="M85.19,46.54h-1.63l.12-.6h3.97l-.12,.6h-1.64l-.95,5h-.69l.95-5Z"/>
    </g>
</svg>
